<?xml version="1.0" encoding="utf-8"?>
<!-- Generator: Adobe Illustrator 15.0.0, SVG Export Plug-In . SVG Version: 6.00 Build 0)  -->
<!DOCTYPE svg PUBLIC "-//W3C//DTD SVG 1.1//EN" "http://www.w3.org/Graphics/SVG/1.1/DTD/svg11.dtd">
<svg version="1.1" id="Layer_1" xmlns="http://www.w3.org/2000/svg" xmlns:xlink="http://www.w3.org/1999/xlink" x="0px" y="0px"
	 width="26px" height="26px" viewBox="0 0 26 26" enable-background="new 0 0 26 26" xml:space="preserve">
<path d="M17.784,8.186c-0.795-0.794-1.73-1.359-2.727-1.697v2.135c0.48,0.239,0.935,0.55,1.334,0.95
	c1.993,1.994,1.993,5.236,0,7.229c-1.993,1.99-5.233,1.99-7.229,0c-1.991-1.995-1.991-5.235,0-7.229
	c0.005-0.006,0.021-0.016,0.028-0.025h0.002l1.181,1.179l-0.007-3.744L6.624,6.979L7.8,8.155C7.793,8.167,7.782,8.179,7.773,8.186
	c-2.763,2.762-2.763,7.243,0,10.005c2.767,2.765,7.245,2.765,10.011,0C20.545,15.429,20.548,10.948,17.784,8.186z"/>
</svg>
